<svg width="0" height="0" class="hidden">
    <symbol xmlns="http://www.w3.org/2000/svg" viewBox="0 0 20 20" id="menu">
        <path fill-rule="evenodd" clip-rule="evenodd" d="M17 14a1 1 0 110 2H3a1 1 0 110-2h14zm0-5a1 1 0 110 2H3a1 1 0 110-2h14zm0-5a1 1 0 110 2H3a1 1 0 010-2h14z"></path>
    </symbol>
    <symbol xmlns="http://www.w3.org/2000/svg" viewBox="0 0 20 20" id="ping">
        <path fill-rule="evenodd" clip-rule="evenodd" d="M5.293 10.293l.094-.084a1 1 0 011.226 0l.094.084.083.094a1 1 0 010 1.226l-.083.094L5.415 13H15a1 1 0 01.993.883L16 14l-.007.117a1 1 0 01-.877.876L15 15H5.415l1.292 1.293.083.094a1 1 0 01-1.403 1.404l-.094-.084-3-3-.103-.12-.054-.083-.059-.118-.035-.098-.031-.139-.01-.095v-.108l.01-.095.031-.139.048-.127.055-.105.056-.082.052-.064.04-.041 3-3 .094-.084-.094.084zm9.32-8.084l.094.084 3 3 .077.085.05.07.057.098.034.073.025.067.015.052.024.114.01.094-.002.129-.008.074-.03.139-.048.125-.047.091-.054.083-.034.043-.069.077-3 3a1 1 0 01-1.497-1.32l.083-.094L14.585 7H5a1 1 0 01-.993-.883L4 6a1 1 0 011-1h9.585l-1.292-1.293a1 1 0 01-.083-1.32l.083-.094a1 1 0 011.219-.153l.101.07z"></path>
    </symbol>
    <symbol xmlns="http://www.w3.org/2000/svg" viewBox="0 0 20 20" id="tracert">
        <path fill-rule="evenodd" clip-rule="evenodd" d="M10 15.848l6.504-3.716a1 1 0 011.09 1.673l-.098.063-7 4a1 1 0 01-.874.058l-.118-.058-7-4a1 1 0 01.888-1.788l.104.052L10 15.848l6.504-3.716L10 15.848zM2.504 6.132l7-4a1 1 0 01.874-.058l.118.058 7 4a1 1 0 01.112 1.663l-.112.073-7 4a1 1 0 01-.874.058l-.118-.058-7-4a1 1 0 01-.112-1.663l.112-.073 7-4-7 4zM10 4.152L5.016 7 10 9.848 14.985 7 10 4.152z"></path>
    </symbol>
    <symbol xmlns="http://www.w3.org/2000/svg" viewBox="0 0 20 20" id="main">
        <path fill-rule="evenodd" clip-rule="evenodd" d="M7.001 18a3 3 0 01-3-3v-4h-1c-.89 0-1.336-1.077-.706-1.707l6.998-7a1 1 0 011.414 0l6.998 7c.63.63.184 1.707-.707 1.707h-1v4A3 3 0 0113 18H7.001zM10 4.415L5.092 9.323l.133.095c.473.366.777.938.777 1.582v4A1 1 0 007 16l1-.001V13a1 1 0 011-1h2a1 1 0 011 1v2.999l.999.001a1 1 0 001-1v-4c0-.702.361-1.32.909-1.677L10 4.415z"></path>
    </symbol>
    <symbol xmlns="http://www.w3.org/2000/svg" viewBox="0 0 20 20" id="traceing">
        <path fill-rule="evenodd" clip-rule="evenodd" d="M4.984 9a1 1 0 011.007.868L6 9.984l.002.156C6.07 12.304 7.705 14 9.666 14c.279 0 .553-.034.819-.1l-.192-.193a1 1 0 111.414-1.414l2 2a1 1 0 010 1.414l-2 2a1 1 0 01-1.414-1.414l.39-.39A5.396 5.396 0 019.665 16c-3 0-5.443-2.462-5.652-5.583l-.011-.23-.002-.17A1 1 0 014.984 9zm4.723-6.707a1 1 0 01.083 1.32l-.083.094-.39.39A5.39 5.39 0 0110.334 4C13.48 4 16 6.701 16 10a1 1 0 11-2 0c0-2.224-1.658-4-3.667-4-.278 0-.552.034-.818.1l.192.193a1 1 0 01-1.32 1.497l-.094-.083-2-2a1 1 0 01-.083-1.32l.083-.094 2-2a1 1 0 011.414 0z"></path>
    </symbol>
</svg>